<svg width="30" height="33" viewBox="0 0 30 33" fill="none" xmlns="http://www.w3.org/2000/svg">
<path d="M25.711 7.77076L26.9221 6.55957L24.4998 4.13718L23.2886 5.34838L25.711 7.77076ZM23.2886 5.34838L4.28868 24.3483L6.71107 26.7706L25.711 7.77076L23.2886 5.34838Z" fill="#374151"/>
<path d="M19.2446 8.45007L20.9575 8.45007L20.9575 5.0243L19.2446 5.0243L19.2446 8.45007ZM19.2446 5.0243L5.50004 5.02429L5.50004 8.45007L19.2446 8.45007L19.2446 5.0243Z" fill="#374151"/>
<path d="M22.6318 25.7738L22.6318 27.4867L26.0576 27.4867L26.0576 25.7738L22.6318 25.7738ZM22.6318 11.4534L22.6318 25.7738L26.0576 25.7738L26.0576 11.4534L22.6318 11.4534Z" fill="#374151"/>
</svg>
