<svg width="42" height="42" viewBox="0 0 42 42" fill="none" xmlns="http://www.w3.org/2000/svg">
<path d="M29.75 19.85V30.75C29.75 34.0637 27.0637 36.75 23.75 36.75H11.25C7.93629 36.75 5.25 34.0637 5.25 30.75V19.85C5.25 19.5186 5.51863 19.25 5.85 19.25H29.15C29.4814 19.25 29.75 19.5186 29.75 19.85Z" stroke="#9CA3AF" stroke-width="1.5" stroke-linecap="round" stroke-linejoin="round"/>
<path d="M21 15.75C21 14 22.25 12.25 24.75 12.25C25.3386 12.25 26.0504 12.25 26.75 12.25C28.4069 12.25 29.75 10.9069 29.75 9.25V6.125" stroke="#9CA3AF" stroke-width="1.5" stroke-linecap="round" stroke-linejoin="round"/>
<path d="M14 15.75V12.625C14 10.9681 15.3431 9.625 17 9.625H20.75C21.8546 9.625 22.75 8.72957 22.75 7.625V5.25" stroke="#9CA3AF" stroke-width="1.5" stroke-linecap="round" stroke-linejoin="round"/>
<path d="M28 19.25H32.375C34.7912 19.25 36.75 21.2088 36.75 23.625C36.75 26.0412 34.7912 28 32.375 28H29.75" stroke="#9CA3AF" stroke-width="1.5" stroke-linecap="round" stroke-linejoin="round"/>
</svg>
