<svg width="42" height="42" viewBox="0 0 42 42" fill="none" xmlns="http://www.w3.org/2000/svg">
<path d="M28.5348 29.9482L30.1257 26.5748C30.33 26.1417 30.92 26.1417 31.1243 26.5748L32.7152 29.9482L36.2732 30.4925C36.7297 30.5623 36.9116 31.1496 36.5811 31.4865L34.0071 34.1105L34.6145 37.8175C34.6926 38.2935 34.2151 38.6566 33.8067 38.4317L30.625 36.6805L27.4434 38.4317C27.0349 38.6566 26.5574 38.2935 26.6355 37.8175L27.2429 34.1105L24.6689 31.4865C24.3384 31.1496 24.5203 30.5623 24.9768 30.4925L28.5348 29.9482Z" stroke="#9CA3AF" stroke-width="1.5" stroke-linecap="round" stroke-linejoin="round"/>
<path d="M35 21V9.87353C35 9.7144 34.9368 9.56179 34.8243 9.44926L29.0507 3.67574C28.9382 3.56321 28.7856 3.5 28.6265 3.5H7.6C7.26863 3.5 7 3.76863 7 4.1V37.9C7 38.2314 7.26863 38.5 7.6 38.5H19.25" stroke="#9CA3AF" stroke-width="1.5" stroke-linecap="round" stroke-linejoin="round"/>
<path d="M28 3.5V9.9C28 10.2314 28.2686 10.5 28.6 10.5H35" stroke="#9CA3AF" stroke-width="1.5" stroke-linecap="round" stroke-linejoin="round"/>
</svg>
